<svg xmlns="http://www.w3.org/2000/svg" viewBox="0 0 262.37 262.37"><defs><style>.cls-1{fill:#168afe;}.cls-2{fill:#fefefe;}</style></defs><g id="Layer_2" data-name="Layer 2"><g id="Layer_1-2" data-name="Layer 1"><path class="cls-1" d="M126.07,0h10.08c1.58.14,3.15.3,4.73.43,1.35.11,2.71.14,4.05.31,2.33.28,4.65.63,7,1,2.08.32,4.19.58,6.23,1.08,4.55,1.13,9.14,2.19,13.59,3.64a131.16,131.16,0,0,1,80.7,74.86,121.25,121.25,0,0,1,7.92,28c.48,3.18,1,6.36,1.27,9.55.32,3.62.45,7.25.58,10.88.06,1.48-.06,3-.12,4.44-.09,2.19-.16,4.38-.3,6.57-.11,2-.29,3.93-.47,5.89-.07.8-.21,1.59-.34,2.58-.23-.4-.37-.62-.49-.84q-13.64-24.78-27.25-49.57a1.07,1.07,0,0,0-1.1-.66q-13.38,0-26.77,0c-.23,0-.46,0-.81,0,.19.35.32.62.47.88q23.14,41.57,46.31,83.13a1.16,1.16,0,0,1,0,1.19A131.43,131.43,0,0,1,164.31,258c-4.4,1.16-8.89,2-13.37,2.79-3.07.54-6.2.75-9.3,1.05a58.67,58.67,0,0,1-5.91.41q-6.73,0-13.47-.29c-2.18-.08-4.35-.33-6.52-.58-2-.23-4-.48-6-.85-3.43-.65-6.88-1.29-10.27-2.14a131.27,131.27,0,0,1-88.6-74.93,138.52,138.52,0,0,1-8.22-25.82c-.63-2.93-1-5.92-1.45-8.88-.29-2-.54-3.92-.72-5.89s-.21-3.71-.31-5.57a7.62,7.62,0,0,0-.14-.81V125.79c.09-1.11.19-2.21.28-3.32.16-1.82.28-3.64.47-5.46.25-2.29.5-4.59.86-6.87.34-2.13.81-4.24,1.25-6.34A128.41,128.41,0,0,1,21,59.91,130.55,130.55,0,0,1,77.47,11.45,126.64,126.64,0,0,1,111,1.55c2.56-.38,5.14-.68,7.71-1,1.61-.17,3.23-.19,4.85-.31C124.39.22,125.23.1,126.07,0Z"/><path class="cls-2" d="M0,136.44a7.62,7.62,0,0,1,.14.81c.1,1.86.14,3.72.31,5.57s.43,3.93.72,5.89c.45,3,.82,5.95,1.45,8.88a138.52,138.52,0,0,0,8.22,25.82,131.27,131.27,0,0,0,88.6,74.93c3.39.85,6.84,1.49,10.27,2.14,2,.37,4,.62,6,.85,2.17.25,4.34.5,6.52.58q6.74.25,13.47.29a58.67,58.67,0,0,0,5.91-.41c3.1-.3,6.23-.51,9.3-1.05,4.48-.79,9-1.63,13.37-2.79a131.43,131.43,0,0,0,87.07-74.53,1.16,1.16,0,0,0,0-1.19Q228.15,140.67,205,99.1c-.15-.26-.28-.53-.47-.88.35,0,.58,0,.81,0q13.39,0,26.77,0a1.07,1.07,0,0,1,1.1.66q13.62,24.8,27.25,49.57c.12.22.26.44.49.84.13-1,.27-1.78.34-2.58.18-2,.36-3.92.47-5.89.14-2.19.21-4.38.3-6.57.06-1.48.18-3,.12-4.44-.13-3.63-.26-7.26-.58-10.88-.28-3.19-.79-6.37-1.27-9.55a121.25,121.25,0,0,0-7.92-28,131.16,131.16,0,0,0-80.7-74.86c-4.45-1.45-9-2.51-13.59-3.64-2-.5-4.15-.76-6.23-1.08-2.33-.36-4.65-.71-7-1-1.34-.17-2.7-.2-4.05-.31C139.3.3,137.73.14,136.15,0H262.37V262.37H0Z"/><path class="cls-2" d="M126.07,0c-.84.1-1.68.22-2.52.28-1.62.12-3.24.14-4.85.31-2.57.28-5.15.58-7.71,1a126.64,126.64,0,0,0-33.52,9.9A130.55,130.55,0,0,0,21,59.91,128.41,128.41,0,0,0,2.86,103.8c-.44,2.1-.91,4.21-1.25,6.34C1.25,112.42,1,114.72.75,117c-.19,1.82-.31,3.64-.47,5.46-.09,1.11-.19,2.21-.28,3.32V0Z"/></g></g></svg>