<svg width="36" height="36" viewBox="0 0 36 36" fill="none" xmlns="http://www.w3.org/2000/svg">
<path d="M34.1321 0.268991C33.7194 0.278736 33.3274 0.451346 33.0416 0.749134L18.0005 15.7902L2.95939 0.749134C2.81375 0.599148 2.63949 0.479913 2.44693 0.398487C2.25438 0.317062 2.04744 0.275103 1.83838 0.275094C1.52742 0.27517 1.22355 0.368019 0.965657 0.541762C0.707762 0.715505 0.507567 0.962239 0.390687 1.2504C0.273807 1.53856 0.245558 1.85503 0.309552 2.15934C0.373546 2.46364 0.526873 2.74193 0.749918 2.95861L15.791 17.9997L0.749918 33.0408C0.599962 33.1848 0.480242 33.3572 0.397768 33.548C0.315295 33.7389 0.271726 33.9442 0.269612 34.1521C0.267498 34.36 0.306883 34.5662 0.38546 34.7587C0.464037 34.9511 0.580226 35.126 0.727223 35.273C0.874219 35.42 1.04907 35.5361 1.24153 35.6147C1.43399 35.6933 1.6402 35.7327 1.84807 35.7306C2.05595 35.7285 2.26131 35.6849 2.45214 35.6024C2.64296 35.5199 2.81541 35.4002 2.95939 35.2503L18.0005 20.2092L33.0416 35.2503C33.1856 35.4002 33.358 35.5199 33.5488 35.6024C33.7397 35.6849 33.945 35.7285 34.1529 35.7306C34.3608 35.7327 34.567 35.6933 34.7594 35.6147C34.9519 35.5361 35.1268 35.42 35.2737 35.273C35.4207 35.126 35.5369 34.9511 35.6155 34.7587C35.6941 34.5662 35.7335 34.36 35.7314 34.1521C35.7292 33.9442 35.6857 33.7389 35.6032 33.548C35.5207 33.3572 35.401 33.1848 35.2511 33.0408L20.21 17.9997L35.2511 2.95861C35.4783 2.74052 35.6343 2.45888 35.6987 2.15058C35.763 1.84229 35.7327 1.52174 35.6118 1.23096C35.4908 0.940185 35.2848 0.692746 35.0207 0.521085C34.7567 0.349423 34.4469 0.261552 34.1321 0.268991Z" fill="#6F727B"/>
</svg>
