<svg width="80" height="80" viewBox="0 0 80 80" fill="none" xmlns="http://www.w3.org/2000/svg">
<path d="M6.66667 0C2.99 0 0 2.99 0 6.66667V73.3333C0 77.01 2.99 80 6.66667 80H35.1823C34.0356 78.0333 33.3333 75.7733 33.3333 73.3333H6.66667V53.3333H13.3333V66.6667H20V53.3333H33.3333V33.3333C33.3333 25.98 39.3133 20 46.6667 20H53.3333V13.3333V6.66667C53.3333 2.99 50.3433 0 46.6667 0H6.66667ZM6.66667 6.66667L46.6667 6.67318V13.3333H6.66667V6.66667ZM46.6667 26.6667C42.9833 26.6667 40 29.65 40 33.3333V73.3333C40.0019 73.7641 40.0455 74.1936 40.1302 74.6159C40.1393 74.6622 40.1528 74.7066 40.1628 74.7526C40.2412 75.117 40.3501 75.4741 40.4883 75.8203C40.523 75.9065 40.5608 75.9899 40.599 76.0742C40.745 76.4 40.917 76.7135 41.1133 77.0117C41.1411 77.0537 41.1692 77.0941 41.1979 77.1354C41.4169 77.4535 41.663 77.7519 41.9336 78.0273C41.9542 78.0481 41.9778 78.0654 41.9987 78.0859C42.2777 78.3616 42.5806 78.6122 42.9036 78.8346H42.9102C42.945 78.8585 42.979 78.883 43.0143 78.9062C43.3186 79.1057 43.6387 79.2799 43.9714 79.4271C44.04 79.4575 44.1099 79.4836 44.1797 79.5117C44.9698 79.832 45.8141 79.9978 46.6667 80H66.6667V26.6667H46.6667ZM73.3333 26.6667V80C77.0167 80 80 77.0167 80 73.3333V33.3333C80 29.65 77.0167 26.6667 73.3333 26.6667Z" fill="#686868"/>
</svg>
