<svg width="40" height="24" viewBox="0 0 40 24" fill="none" xmlns="http://www.w3.org/2000/svg">
<path d="M19.9888 0.5C10.5558 0.5 2.24427 7.03826 0.0392706 15.6058C-0.0431779 15.927 0.00533096 16.2677 0.174126 16.5531C0.342921 16.8385 0.618175 17.0452 0.939335 17.1276C1.2605 17.21 1.60126 17.1615 1.88665 16.9927C2.17204 16.8239 2.3787 16.5487 2.46115 16.2275C4.36115 8.84507 11.7218 3 19.9888 3C28.2558 3 35.6398 8.84712 37.5393 16.2275C37.6217 16.5487 37.8284 16.8239 38.1138 16.9927C38.3992 17.1615 38.7399 17.21 39.0611 17.1276C39.3822 17.0452 39.6575 16.8385 39.8263 16.5531C39.9951 16.2677 40.0436 15.927 39.9611 15.6058C37.7556 7.03621 29.4218 0.5 19.9888 0.5ZM20.0018 7.16666C15.5684 7.16666 11.9484 10.7867 11.9484 15.22C11.9484 19.6534 15.5684 23.2751 20.0018 23.2751C24.4352 23.2751 28.0568 19.6534 28.0568 15.22C28.0568 10.7867 24.4352 7.16666 20.0018 7.16666Z" fill="#B3B3B5"/>
</svg>
