<svg width="91" height="100" viewBox="0 0 91 100" fill="none" xmlns="http://www.w3.org/2000/svg">
<path d="M65.5853 0.663818C59.3158 0.663818 53.0475 3.04694 48.2819 7.81256L48.0469 8.04755C38.5156 17.5788 38.5156 33.1248 48.0469 42.656L60.8597 55.391C62.1878 56.7191 63.9062 57.3441 65.625 57.3441C67.3438 57.3441 69.0622 56.7191 70.3903 55.391L83.1253 42.656C92.6566 33.1248 92.6566 17.5788 83.1253 8.04755L82.8903 7.81256C78.1247 3.04694 71.8549 0.663818 65.5853 0.663818ZM65.625 14.8438C66.9531 14.8438 67.9688 15.8594 67.9688 17.1876V28.9063C67.9688 30.2344 66.9531 31.2501 65.625 31.2501C64.2969 31.2501 63.2812 30.2344 63.2812 28.9063V17.1876C63.2812 15.8594 64.2969 14.8438 65.625 14.8438ZM10.9375 16.4063C5.3125 16.4063 0.78125 20.9376 0.78125 26.5626V89.0626C0.78125 94.6876 5.3125 99.2188 10.9375 99.2188H73.4375C79.0625 99.2188 83.5938 94.6876 83.5938 89.0626V56.6407C83.5938 55.3126 82.5781 54.2969 81.25 54.2969C79.9219 54.2969 78.9062 55.3126 78.9062 56.6407V63.2813H34.375V18.7501C34.375 17.4219 33.3594 16.4063 32.0312 16.4063H10.9375ZM10.9375 21.0938H29.6875V35.9376H5.46875V26.5626C5.46875 23.5157 7.89062 21.0938 10.9375 21.0938ZM65.625 34.3751C66.9531 34.3751 67.9688 35.3907 67.9688 36.7188V38.2813C67.9688 39.6094 66.9531 40.6251 65.625 40.6251C64.2969 40.6251 63.2812 39.6094 63.2812 38.2813V36.7188C63.2812 35.3907 64.2969 34.3751 65.625 34.3751ZM5.46875 40.6251H29.6875V63.2813H5.46875V40.6251ZM5.46875 67.9688H15.625V94.5313H10.9375C7.89062 94.5313 5.46875 92.1094 5.46875 89.0626V67.9688ZM20.3125 67.9688H29.6875V94.5313H20.3125V67.9688ZM34.375 67.9688H41.2506L67.8131 94.5313H34.375V67.9688ZM47.8119 67.9688H78.9062V89.0626C78.9062 91.7969 76.9528 94.0629 74.2966 94.4535L47.8119 67.9688Z" fill="#686868"/>
</svg>
