<svg width="94" height="72" viewBox="0 0 94 72" fill="none" xmlns="http://www.w3.org/2000/svg">
<path d="M47 0.0625C34.0172 0.0625 26.1402 1.33789 22.1465 2.25977C20.134 2.72383 18.4958 4.16011 17.7489 6.08667L11.6698 21.7727C10.5665 20.001 8.61561 18.8125 6.375 18.8125H0.125V21.9375C0.125 25.3891 2.92344 28.1875 6.375 28.1875H8.21826L6.60388 30.4092C5.43826 32.0123 4.8125 33.941 4.8125 35.9207V57.875V61V68.8125C4.8125 70.5391 6.21094 71.9375 7.9375 71.9375H14.6666C16.1932 71.9375 17.4973 70.8314 17.7489 69.3252L18.994 61.8545C26.5496 62.2191 36.3854 62.5625 47 62.5625C57.6146 62.5625 67.4504 62.2191 75.006 61.8545L76.2511 69.3252C76.5027 70.8314 77.8068 71.9375 79.3334 71.9375H86.0625C87.7891 71.9375 89.1875 70.5391 89.1875 68.8125V61V57.875V35.9207C89.1875 33.941 88.5617 32.0123 87.3961 30.4092L85.7817 28.1875H87.625C91.0766 28.1875 93.875 25.3891 93.875 21.9375V18.8125H87.625C85.3834 18.8125 83.4332 20.0028 82.3302 21.7758L76.248 6.08667C75.5012 4.16167 73.863 2.72383 71.8505 2.25977C67.8583 1.33945 59.9828 0.0625 47 0.0625ZM47 6.3125C59.7156 6.3125 67.1488 7.58872 70.4222 8.34497L77.8929 27.6107C77.8929 27.6107 65.75 29.75 47 29.75C28.25 29.75 16.1071 27.6107 16.1071 27.6107L23.5503 8.35108C26.8503 7.59014 34.2844 6.3125 47 6.3125ZM11.0625 36L28.25 37.5625L25.125 43.8125H17.3613C15.4441 43.8125 13.7205 42.6442 13.0095 40.8645L11.0625 36ZM82.9375 36L80.9905 40.8645C80.2795 42.6442 78.5559 43.8125 76.6387 43.8125H68.875L65.75 37.5625L82.9375 36ZM31.2987 48.5H62.7013L61.0259 54.0847C60.629 55.4066 59.4118 56.3125 58.0321 56.3125H35.9679C34.5882 56.3125 33.371 55.4066 32.9741 54.0847L31.2987 48.5Z" fill="#686868"/>
</svg>
